<svg xmlns="http://www.w3.org/2000/svg" version="1.1" xmlns:xlink="http://www.w3.org/1999/xlink" xmlns:svgjs="http://svgjs.com/svgjs" width="1920" height="1080" preserveAspectRatio="none" viewBox="0 0 1920 1080"><g mask="url(&quot;#SvgjsMask1033&quot;)" fill="none"><rect width="1920" height="1080" x="0" y="0" fill="rgba(250, 250, 250, 1)"></rect><path d="M-191.77 47.76 a239.53 239.53 0 1 0 479.06 0 a239.53 239.53 0 1 0 -479.06 0z" fill="rgba(37, 43, 66, 0.81)" class="triangle-float1"></path><path d="M47.574,141.035C83.569,141.37,120.566,131.236,140.009,100.941C160.931,68.342,163.971,25.038,142.866,-7.443C123.18,-37.741,83.704,-40.956,47.574,-41.32C10.524,-41.693,-31.201,-40.65,-51.101,-9.396C-72.022,23.462,-63.292,66.677,-41.927,99.248C-22.572,128.755,12.287,140.707,47.574,141.035" fill="rgba(37, 43, 66, 0.81)" class="triangle-float2"></path><path d="M142.678,340.964C209.474,337.384,260.065,287.691,293.161,229.56C325.83,172.178,345.144,102.01,310.845,45.587C277.481,-9.297,206.809,-21.558,142.678,-17.986C85.483,-14.801,36.417,15.373,4.101,62.671C-34.1,118.583,-68.783,186.721,-38.599,247.338C-6.108,312.588,69.89,344.865,142.678,340.964" fill="rgba(37, 43, 66, 0.81)" class="triangle-float3"></path><path d="M1612.63 -52.62 a38.75 38.75 0 1 0 77.5 0 a38.75 38.75 0 1 0 -77.5 0z" fill="rgba(37, 43, 66, 0.81)" class="triangle-float2"></path><path d="M1625.48 -65.47 a13.05 13.05 0 1 0 26.1 0 a13.05 13.05 0 1 0 -26.1 0z" fill="rgba(37, 43, 66, 0.81)" class="triangle-float2"></path><path d="M1942.474,535.632C2039.934,537.218,2101.841,443.029,2149.616,358.067C2196.111,275.383,2235.014,179.067,2189.896,95.624C2143.12,9.115,2040.795,-27.197,1942.474,-25.027C1848.149,-22.946,1756.794,22.434,1713.269,106.142C1672.455,184.636,1705.035,273.458,1746.689,351.51C1791.897,436.221,1846.468,534.07,1942.474,535.632" fill="rgba(37, 43, 66, 0.81)" class="triangle-float1"></path><path d="M-208.24 928.23 a272.47 272.47 0 1 0 544.94 0 a272.47 272.47 0 1 0 -544.94 0z" fill="rgba(37, 43, 66, 0.81)" class="triangle-float3"></path><path d="M87.444,1081.392C136.287,1081.841,187.184,1065.424,210.949,1022.75C234.233,980.94,216.925,931.928,194.109,889.861C169.799,845.039,138.349,797.983,87.444,795.033C32.656,791.858,-17.303,827.64,-43.024,876.119C-67.27,921.817,-59.935,976.852,-32.186,1020.512C-6.462,1060.985,39.49,1080.951,87.444,1081.392" fill="rgba(37, 43, 66, 0.81)" class="triangle-float1"></path><path d="M272.6,1456.744C378.05,1449.05,449.332,1360.71,500.866,1268.39C550.71,1179.099,582.927,1075.366,536.292,984.358C485.918,886.052,383.023,825.811,272.6,822.924C156.895,819.899,44.065,871.041,-16.108,969.915C-78.635,1072.657,-83.055,1203.068,-21.705,1306.518C38.511,1408.056,154.862,1465.334,272.6,1456.744" fill="rgba(37, 43, 66, 0.81)" class="triangle-float2"></path><path d="M1825.757,1176.861C1889.093,1177.852,1933.363,1121.002,1963.592,1065.336C1992.132,1012.781,2005.143,951.208,1976.933,898.475C1947.215,842.923,1888.709,805.184,1825.757,807.682C1766.278,810.043,1721.287,856.785,1694.028,909.703C1669.252,957.801,1671.268,1012.61,1695.195,1061.136C1722.76,1117.041,1763.434,1175.886,1825.757,1176.861" fill="rgba(37, 43, 66, 0.81)" class="triangle-float2"></path><path d="M1607.06 816.95 a49.89 49.89 0 1 0 99.78 0 a49.89 49.89 0 1 0 -99.78 0z" fill="rgba(37, 43, 66, 0.81)" class="triangle-float1"></path><path d="M1809.523,1118.002C1859.743,1116.159,1899.083,1079.243,1923.198,1035.153C1946.214,993.073,1949.42,944.017,1928.215,900.996C1904.056,851.984,1864.144,806.09,1809.523,804.532C1752.887,802.916,1705.376,843.998,1678.493,893.873C1653.031,941.111,1653.329,997.738,1680.413,1044.065C1707.24,1089.953,1756.404,1119.952,1809.523,1118.002" fill="rgba(37, 43, 66, 0.81)" class="triangle-float2"></path></g><defs><mask id="SvgjsMask1033"><rect width="1920" height="1080" fill="#ffffff"></rect></mask><style>
            @keyframes float1 {
                0%{transform: translate(0, 0)}
                50%{transform: translate(-10px, 0)}
                100%{transform: translate(0, 0)}
            }

            .triangle-float1 {
                animation: float1 5s infinite;
            }

            @keyframes float2 {
                0%{transform: translate(0, 0)}
                50%{transform: translate(-5px, -5px)}
                100%{transform: translate(0, 0)}
            }

            .triangle-float2 {
                animation: float2 4s infinite;
            }

            @keyframes float3 {
                0%{transform: translate(0, 0)}
                50%{transform: translate(0, -10px)}
                100%{transform: translate(0, 0)}
            }

            .triangle-float3 {
                animation: float3 6s infinite;
            }
        </style></defs></svg>